# xmcd CD database file
#
# Track frame offsets:
#	150
#	11289
#	21817
#	28016
#	38658
#	49153
#	60297
#	72043
#	82475
#	94491
#	105505
#	116850
#	130309
#	140479
#
# Disc length: 1952 seconds
#
# Revision: 0
# Processed by: cddbd v1.5.2PL0 Copyright (c) Steve Scherf et al.
# Submitted via: CDex 1.51
#
DISCID=bc079e0e
DTITLE=Leroy Troy - Three  Fingers and a Clawhammer
DYEAR=1992
DGENRE=Country
TTITLE0=Golden Slippers
TTITLE1=Bicycle Built for  Two
TTITLE2=Soldiers Joy
TTITLE3=Sourwood Mountain
TTITLE4=Cripple  Creek
TTITLE5=Liza Jane
TTITLE6=Casey Jones Blues
TTITLE7=Black Mountain Rag
TTITLE8=Red  Wind
TTITLE9=Mississippi Sawyer
TTITLE10=John Henry
TTITLE11=Keep My Skillet Good and Greasy
TTITLE12=Cripple Creek
TTITLE13=Down The Road
EXTD=YEAR: 1992
EXTT0=
EXTT1=
EXTT2=
EXTT3=
EXTT4=
EXTT5=
EXTT6=
EXTT7=
EXTT8=
EXTT9=
EXTT10=
EXTT11=
EXTT12=
EXTT13=
PLAYORDER=
